# xmcd
#
# Track frame offsets: 
#        150
#        10275
#        27637
#        43987
#        55837
#        74362
#        89587
#        102150
#        111150
#        122063
#        139275
#        152400
#        165263
#        177300
#        193838
#        206625
#        212925
#        232350
#        247425
#        254063
#        267000
#
# Disc length: 3811 seconds
#
# Revision: 1
# Processed by: cddbd v1.5.2PL0 Copyright (c) Steve Scherf et al.
# Submitted via: ExactAudioCopyFreeDBPlugin 1.0
#
DISCID=4a0ee115
DTITLE=Dry Branch Fire Squad - 30th Anniversary Special
DYEAR=2007
DGENRE=bluegrass
TTITLE0=I've Lived a Lot in My Time
TTITLE1=Devil, Take the Farmer
TTITLE2=I Saw a Man at Close of Day
TTITLE3=Rollin' on Rubber Wheels
TTITLE4=Church by the Road
TTITLE5=He's Coming to Us Dead
TTITLE6=A Distant Land to Roam
TTITLE7=Over in the Glory Land
TTITLE8=Do You Ever Dream of Me?
TTITLE9=The Honest Farmer
TTITLE10=Long Journey
TTITLE11=Oak Grove Church
TTITLE12=Hide You in the Blood
TTITLE13=Golden Ring
TTITLE14=Carolyn at the Broken Wheel Inn
TTITLE15=When I Went down in the Valley to Pray
TTITLE16=The Orphan Train
TTITLE17=While Roving on Last Winters Night
TTITLE18=Dip your fingers in Some Water
TTITLE19=We Believe in Happy Endings
TTITLE20=How Great Thou Art
EXTD=
EXTT0=
EXTT1=
EXTT2=
EXTT3=
EXTT4=
EXTT5=
EXTT6=
EXTT7=
EXTT8=
EXTT9=
EXTT10=
EXTT11=
EXTT12=
EXTT13=
EXTT14=
EXTT15=
EXTT16=
EXTT17=
EXTT18=
EXTT19=
EXTT20=
PLAYORDER=
